# Blender v2.82 (sub 7) OBJ File: 'terrain_test3.blend'
# www.blender.org
mtllib terrain_test3.mtl
o ground_Plane
v 0.433408 0.000000 22.224033
v 21.632299 0.000000 0.996526
v -20.794100 0.000000 1.025142
v 0.404792 0.000000 -20.202366
vt 0.000000 0.000000
vt 1.000000 0.000000
vt 1.000000 1.000000
vt 0.000000 1.000000
vn 0.0000 1.0000 0.0000
usemtl matFloor
s off
f 1/1/1 2/2/1 4/3/1 3/4/1
o block_Cube.001
v 0.421008 0.000000 3.839260
v 0.421008 4.000000 3.839260
v -2.409326 0.000000 1.012741
v -2.409326 2.000254 1.012741
v 3.247527 0.000000 1.008926
v 3.247527 4.000000 1.008926
v 0.417193 0.000000 -1.817593
v 0.417193 2.000254 -1.817593
vt 0.375000 0.000000
vt 0.625000 0.000000
vt 0.625000 0.250000
vt 0.375000 0.250000
vt 0.625000 0.500000
vt 0.375000 0.500000
vt 0.625000 0.750000
vt 0.375000 0.750000
vt 0.625000 1.000000
vt 0.375000 1.000000
vt 0.125000 0.500000
vt 0.125000 0.750000
vt 0.875000 0.500000
vt 0.875000 0.750000
vn -0.7066 0.0000 0.7076
vn -0.7076 0.0000 -0.7066
vn 0.7066 0.0000 -0.7076
vn 0.7076 0.0000 0.7066
vn 0.0000 -1.0000 0.0000
vn -0.3164 0.8944 -0.3160
usemtl matFloor
s off
f 5/5/2 6/6/2 8/7/2 7/8/2
f 7/8/3 8/7/3 12/9/3 11/10/3
f 11/10/4 12/9/4 10/11/4 9/12/4
f 9/12/5 10/11/5 6/13/5 5/14/5
f 7/15/6 11/10/6 9/12/6 5/16/6
f 12/9/7 8/17/7 6/18/7 10/11/7
o wall_Plane.001
v -20.794098 0.000000 1.025142
v 0.404793 0.000000 -20.202366
v -20.794098 2.000000 1.025142
v 0.404793 2.000000 -20.202366
vt 0.000000 0.000000
vt 1.000000 0.000000
vt 1.000000 1.000000
vt 0.000000 1.000000
vn 0.7076 0.0000 0.7066
usemtl matFloor
s off
f 13/19/8 14/20/8 16/21/8 15/22/8
o wall.001_Plane.002
v 0.433409 0.000000 22.224033
v -20.794098 0.000000 1.025142
v 0.433409 2.000000 22.224033
v -20.794098 2.000000 1.025142
vt 0.000000 0.000000
vt 1.000000 0.000000
vt 1.000000 1.000000
vt 0.000000 1.000000
vn 0.7066 0.0000 -0.7076
usemtl matFloor
s off
f 17/23/9 18/24/9 20/25/9 19/26/9
o wall.002_Plane.003
v 0.433409 2.000000 22.224033
v 21.632299 2.000000 0.996526
v 0.433409 0.000000 22.224033
v 21.632299 0.000000 0.996526
vt 0.000000 0.000000
vt 1.000000 0.000000
vt 1.000000 1.000000
vt 0.000000 1.000000
vn -0.7076 0.0000 -0.7066
usemtl matFloor
s off
f 21/27/10 22/28/10 24/29/10 23/30/10
o wall.003_Plane.004
v 21.632299 2.000000 0.996526
v 0.404793 2.000000 -20.202366
v 21.632299 0.000000 0.996526
v 0.404793 0.000000 -20.202366
vt 0.000000 0.000000
vt 1.000000 0.000000
vt 1.000000 1.000000
vt 0.000000 1.000000
vn -0.7066 0.0000 0.7076
usemtl matFloor
s off
f 25/31/11 26/32/11 28/33/11 27/34/11
o Cone
v 6.777814 0.000000 -6.771631
v 6.929266 0.000000 -6.896096
v 7.102091 0.000000 -6.988623
v 7.289646 0.000000 -7.045655
v 7.484723 0.000000 -7.065001
v 7.679826 0.000000 -7.045918
v 7.867457 0.000000 -6.989139
v 8.040406 0.000000 -6.896846
v 8.192027 0.000000 -6.772585
v 8.316492 0.000000 -6.621132
v 8.409019 0.000000 -6.448308
v 8.466051 0.000000 -6.260753
v 8.485397 0.000000 -6.065676
v 8.466314 0.000000 -5.870573
v 8.409534 0.000000 -5.682941
v 8.317242 0.000000 -5.509992
v 8.192981 0.000000 -5.358372
v 8.041528 0.000000 -5.233907
v 7.868703 0.000000 -5.141380
v 7.681149 0.000000 -5.084348
v 7.486071 0.000000 -5.065001
v 7.290968 0.000000 -5.084085
v 7.103336 0.000000 -5.140864
v 7.485397 2.000000 -6.065001
v 6.930387 0.000000 -5.233158
v 6.778767 0.000000 -5.357419
v 6.654302 0.000000 -5.508872
v 6.561776 0.000000 -5.681696
v 6.504744 0.000000 -5.869251
v 6.485397 0.000000 -6.064328
v 6.504481 0.000000 -6.259431
v 6.561260 0.000000 -6.447063
v 6.653554 0.000000 -6.620012
vt 0.250000 0.490000
vt 0.250000 0.250000
vt 0.296822 0.485388
vt 0.341844 0.471731
vt 0.383337 0.449553
vt 0.419706 0.419706
vt 0.449553 0.383337
vt 0.471731 0.341844
vt 0.485388 0.296822
vt 0.490000 0.250000
vt 0.485388 0.203178
vt 0.471731 0.158156
vt 0.449553 0.116663
vt 0.419706 0.080294
vt 0.383337 0.050447
vt 0.341844 0.028269
vt 0.296822 0.014612
vt 0.250000 0.010000
vt 0.203178 0.014612
vt 0.158156 0.028269
vt 0.116663 0.050447
vt 0.080294 0.080294
vt 0.050447 0.116663
vt 0.028269 0.158156
vt 0.014611 0.203179
vt 0.010000 0.250000
vt 0.014612 0.296822
vt 0.028269 0.341844
vt 0.050447 0.383337
vt 0.080295 0.419706
vt 0.116663 0.449553
vt 0.158156 0.471731
vt 0.203179 0.485389
vt 0.750000 0.490000
vt 0.796822 0.485388
vt 0.841844 0.471731
vt 0.883337 0.449553
vt 0.919706 0.419706
vt 0.949553 0.383337
vt 0.971731 0.341844
vt 0.985388 0.296822
vt 0.990000 0.250000
vt 0.985388 0.203178
vt 0.971731 0.158156
vt 0.949553 0.116663
vt 0.919706 0.080294
vt 0.883337 0.050447
vt 0.841844 0.028269
vt 0.796822 0.014612
vt 0.750000 0.010000
vt 0.703178 0.014612
vt 0.658156 0.028269
vt 0.616663 0.050447
vt 0.580294 0.080294
vt 0.550447 0.116663
vt 0.528269 0.158156
vt 0.514611 0.203179
vt 0.510000 0.250000
vt 0.514612 0.296822
vt 0.528269 0.341844
vt 0.550447 0.383337
vt 0.580295 0.419706
vt 0.616663 0.449553
vt 0.658156 0.471731
vt 0.703179 0.485389
vn -0.5684 0.4455 -0.6917
vn -0.4226 0.4455 -0.7893
vn -0.2605 0.4455 -0.8566
vn -0.0884 0.4455 -0.8909
vn 0.0872 0.4455 -0.8910
vn 0.2593 0.4455 -0.8569
vn 0.4215 0.4455 -0.7899
vn 0.5675 0.4455 -0.6925
vn 0.6917 0.4455 -0.5684
vn 0.7893 0.4455 -0.4226
vn 0.8566 0.4455 -0.2605
vn 0.8909 0.4455 -0.0884
vn 0.8910 0.4455 0.0872
vn 0.8569 0.4455 0.2593
vn 0.7899 0.4455 0.4215
vn 0.6924 0.4455 0.5675
vn 0.5684 0.4455 0.6917
vn 0.4226 0.4455 0.7893
vn 0.2605 0.4455 0.8566
vn 0.0884 0.4455 0.8909
vn -0.0872 0.4455 0.8910
vn -0.2593 0.4455 0.8569
vn -0.4215 0.4455 0.7899
vn -0.5675 0.4455 0.6924
vn -0.6917 0.4455 0.5684
vn -0.7893 0.4455 0.4226
vn -0.8566 0.4455 0.2605
vn -0.8909 0.4455 0.0884
vn -0.8910 0.4455 -0.0872
vn -0.8569 0.4455 -0.2593
vn -0.7899 0.4455 -0.4215
vn -0.6924 0.4455 -0.5675
vn 0.0000 -1.0000 0.0000
usemtl matFloor
s off
f 29/35/12 52/36/12 30/37/12
f 30/37/13 52/36/13 31/38/13
f 31/38/14 52/36/14 32/39/14
f 32/39/15 52/36/15 33/40/15
f 33/40/16 52/36/16 34/41/16
f 34/41/17 52/36/17 35/42/17
f 35/42/18 52/36/18 36/43/18
f 36/43/19 52/36/19 37/44/19
f 37/44/20 52/36/20 38/45/20
f 38/45/21 52/36/21 39/46/21
f 39/46/22 52/36/22 40/47/22
f 40/47/23 52/36/23 41/48/23
f 41/48/24 52/36/24 42/49/24
f 42/49/25 52/36/25 43/50/25
f 43/50/26 52/36/26 44/51/26
f 44/51/27 52/36/27 45/52/27
f 45/52/28 52/36/28 46/53/28
f 46/53/29 52/36/29 47/54/29
f 47/54/30 52/36/30 48/55/30
f 48/55/31 52/36/31 49/56/31
f 49/56/32 52/36/32 50/57/32
f 50/57/33 52/36/33 51/58/33
f 51/58/34 52/36/34 53/59/34
f 53/59/35 52/36/35 54/60/35
f 54/60/36 52/36/36 55/61/36
f 55/61/37 52/36/37 56/62/37
f 56/62/38 52/36/38 57/63/38
f 57/63/39 52/36/39 58/64/39
f 58/64/40 52/36/40 59/65/40
f 59/65/41 52/36/41 60/66/41
f 60/66/42 52/36/42 61/67/42
f 61/67/43 52/36/43 29/35/43
f 29/68/44 30/69/44 31/70/44 32/71/44 33/72/44 34/73/44 35/74/44 36/75/44 37/76/44 38/77/44 39/78/44 40/79/44 41/80/44 42/81/44 43/82/44 44/83/44 45/84/44 46/85/44 47/86/44 48/87/44 49/88/44 50/89/44 51/90/44 53/91/44 54/92/44 55/93/44 56/94/44 57/95/44 58/96/44 59/97/44 60/98/44 61/99/44
